<svg xmlns="http://www.w3.org/2000/svg" viewBox="0 0 290.32 160"><defs><style>.cls-1{fill:#009896;}</style></defs><g id="Layer_2" data-name="Layer 2"><g id="Layer_1-2" data-name="Layer 1"><path class="cls-1" d="M211.3,6.37a13.33,13.33,0,0,1-18.79,1.48A13.25,13.25,0,0,1,188,0H82.9C81,3.35,78.09,5.52,74.8,5.62c-3.46.1-6.61-2.11-8.72-5.62h-24c0,.09,0,.18,0,.27,0,.47,0,1-.07,1.43,0,.25,0,.5,0,.75,0,.7,0,1.41-.06,2.11v.07q-.09,4.5.21,9a59,59,0,0,1-16.75,4.8C13.35,20,11,4.43,8.47,10.5c-1.45,3.56,1.95,7.69,3.1,13.22.81,3.91-1.33,9,.92,12.91C17.93,46,16.7,25.17,26,22.6A45.27,45.27,0,0,1,42.9,21.55a107,107,0,0,0,4.66,19.66,81.44,81.44,0,0,1-22,13.38C10,61,1.22,40.87.05,49.94c-.67,5.23,5.06,9.66,8.47,16.59C11,71.6,10.3,79.16,14.81,83.7,25.49,94.43,16.39,66.75,28,60a63.11,63.11,0,0,1,24-7.65A107.94,107.94,0,0,0,62.36,70,49.91,49.91,0,0,1,51.61,81c-8.25,6.19-16.56-4.37-15.85,1.18.41,3.24,3.69,5.1,6.84,8.71,2.25,2.58,3.78,7,7.11,9,8,4.71-1.68-10.28,4.13-16.08a38.94,38.94,0,0,1,12.92-8.19c.61.74,1.23,1.46,1.86,2.19l.79.88c.26.3.52.59.79.88A107.29,107.29,0,0,0,90.92,97.28a58.93,58.93,0,0,1-6.52,16c-6.17,10.39-19.89,2.68-16.64,8.38,1.95,3.42,7.82,3.72,13.08,6.24,3.48,1.68,5.67,6.09,10,6.7,10.74,1.53-6.42-10.38-2.71-19.26a45.25,45.25,0,0,1,9.62-14l.28.16,1.94,1,.22.12a108,108,0,0,0,10.7,4.87A81.31,81.31,0,0,1,107,133c-5.14,16.05-26.19,9.84-20,16.57,3.51,3.81,11,1.71,18.27,3.58,5.6,1.43,10.52,7.39,17.07,6.84,15.08-1.27-12-12.1-9.69-25.33a63.34,63.34,0,0,1,9.61-23.33,108,108,0,0,0,16.45,3.08,50.22,50.22,0,0,1,1,15.44c-.93,10.31-14.38,9.42-9.76,12.62,2.58,1.8,7-1.81,11.6-1.65,3.59.12,7.07,4.38,11,3.15,8.87-2.79-8.79-5.65-9.21-13.88a39,39,0,0,1,2.57-15.14l.57,0,2.11.06h.08a108.35,108.35,0,0,0,18.75-1.3,36.93,36.93,0,0,1,3.3,9c1.66,7.39-7.91,9.77-4,11,2.22.68,4.42-2.17,7.67-3.1,2.5-.72,6,.81,8.38-.9,5.56-3.92-7.38-2-9.51-7.6a27.82,27.82,0,0,1-1.63-9.08,108.83,108.83,0,0,0,17.84-5.17l.27-.11,2-.8a107.58,107.58,0,0,0,14.74-7.42,59.69,59.69,0,0,1,12.29,13.73c6.65,10.29-6.54,19.26.1,18.88,3.88-.22,5.81-5.7,10.36-9.15,3.23-2.45,9.19-2.14,11.78-5.9,6.23-9.07-12.32,1.14-18.71-6.23a46.24,46.24,0,0,1-8.65-16.05q4.22-3,8.18-6.49l.88-.78.88-.79c2.48-2.25,4.82-4.6,7.05-7A81.47,81.47,0,0,1,253,92.38c13.14,10.56-.2,28,8.3,24.62,4.91-1.94,4.69-10.31,9.11-16.67,3.23-4.63,11.5-6.44,13.29-12.58,4.22-14.54-15.59,6.82-27.13,0A63.25,63.25,0,0,1,238.2,70.38a109,109,0,0,0,7.3-11.48c.36-.64.7-1.29,1-1.94l.12-.23A107.48,107.48,0,0,0,257.55,24.1a56,56,0,0,1,16.35-.43C285.36,25.05,283.9,40,287.63,35c2.32-3.14.5-8.22.6-14,.06-3.52,2.91-7.32,1.85-11.09-2.8-10-6.6,9.61-15.79,9.8a43,43,0,0,1-15.78-3l.15-1.86.06-.75.09-1.43c0-.48.05-1,.07-1.43l0-.76c0-.7,0-1.4.06-2.11V8.27Q259,4.14,258.8,0H214.28A13.3,13.3,0,0,1,211.3,6.37ZM72.66,42.19c-2.78.37-5.53-2.88-6.12-7.28s1.17-8.27,4-8.65,5.54,2.88,6.13,7.28S75.45,41.81,72.66,42.19ZM116,83.53c-2.38,3.22-10.17,1.5-17.39-3.84s-11.15-12.28-8.77-15.5S100,62.69,107.24,68,118.39,80.31,116,83.53Zm.2-52.69A14.11,14.11,0,1,1,114.64,11,14.11,14.11,0,0,1,116.21,30.84Zm20.12,25.93a25.47,25.47,0,1,1,35.91-2.84A25.47,25.47,0,0,1,136.33,56.77Zm49.51,37c-6.59,2.45-13.22,1-14.8-3.28s2.48-9.7,9.08-12.15,13.22-1,14.8,3.29S192.44,91.3,185.84,93.74Zm37.38-34.35c-3,3.23-7.17,4.28-9.22,2.35s-1.23-6.11,1.81-9.34S223,48.12,225,50.05,226.27,56.17,223.22,59.39Zm-.31-45.92c1.56-6.53,6.41-11,10.83-9.9s6.74,7.2,5.18,13.73-6.41,11-10.83,9.9S221.35,20,222.91,13.47Z"/></g></g></svg>